<svg style="enable-background:new 0 0 30 30" viewBox="0 0 30 30" xml:space="preserve" xmlns="http://www.w3.org/2000/svg" fill="#006db7"><path d="M26 9a.997.997 0 0 0-.625-.924l-9.459-4.854h-.018C15.627 3.085 15.325 3 15 3s-.627.085-.898.222h-.018L4.625 8.076a.997.997 0 0 0-.008 1.847v.02l9.474 4.838.009-.004c.272.138.574.223.9.223s.628-.085.9-.223l.009.004 9.474-4.838v-.02A1 1 0 0 0 26 9z"/><path d="m25.375 14.076-1.851-.95a1762.61 1762.61 0 0 1-6.916 3.528 3.916 3.916 0 0 1-3.221-.002c-.044-.016-4.005-2.038-6.911-3.526l-1.851.95a.997.997 0 0 0-.008 1.847v.02l9.474 4.838.009-.004c.272.138.574.223.9.223s.628-.085.9-.223l.009.004 9.474-4.838v-.02a.997.997 0 0 0-.008-1.847z"/><path d="m25.375 20.076-1.851-.95a1762.61 1762.61 0 0 1-6.916 3.528 3.916 3.916 0 0 1-3.221-.002c-.044-.016-4.005-2.038-6.911-3.526l-1.851.95a.997.997 0 0 0-.008 1.847v.02l9.474 4.838.009-.004c.272.138.574.223.9.223s.628-.085.9-.223l.009.004 9.474-4.838v-.02a.997.997 0 0 0-.008-1.847z"/></svg>