<svg viewBox="0 0 32 32" xmlns="http://www.w3.org/2000/svg" fill="#006db7"><g><path d="M28 9H11a1 1 0 0 1 0-2h17a1 1 0 0 1 0 2ZM7 9H4a1 1 0 0 1 0-2h3a1 1 0 0 1 0 2ZM21 17H4a1 1 0 0 1 0-2h17a1 1 0 0 1 0 2ZM11 25H4a1 1 0 0 1 0-2h7a1 1 0 0 1 0 2Z"/><path d="M9 11a3 3 0 1 1 3-3 3 3 0 0 1-3 3Zm0-4a1 1 0 1 0 1 1 1 1 0 0 0-1-1ZM23 19a3 3 0 1 1 3-3 3 3 0 0 1-3 3Zm0-4a1 1 0 1 0 1 1 1 1 0 0 0-1-1ZM13 27a3 3 0 1 1 3-3 3 3 0 0 1-3 3Zm0-4a1 1 0 1 0 1 1 1 1 0 0 0-1-1Z"/><path d="M28 17h-3a1 1 0 0 1 0-2h3a1 1 0 0 1 0 2ZM28 25H15a1 1 0 0 1 0-2h13a1 1 0 0 1 0 2Z"/></g><path style="fill:none" d="M0 0h32v32H0z"/></svg>
